<svg
  width="16"
  height="17"
  viewBox="0 0 16 17"
  fill="none"
  xmlns="http://www.w3.org/2000/svg"
>
  <path
    d="M13.9999 8.50002C13.9999 8.63263 13.9472 8.7598 13.8534 8.85357C13.7597 8.94734 13.6325 9.00002 13.4999 9.00002H8.49988C8.49988 9.00002 8.13249 9.00002 7.99988 9.00002C7.86727 9.00002 8.15961 9.00002 7.99988 9.00002C7.84015 9.00002 7.99988 9.00002 7.49988 9.00002H2.49988C2.36727 9.00002 2.24009 8.94734 2.14632 8.85357C2.05256 8.7598 1.99988 8.63263 1.99988 8.50002C1.99988 8.36741 2.05256 8.24023 2.14632 8.14646C2.24009 8.0527 2.36727 8.00002 2.49988 8.00002H7.49988C7.49988 8.00002 7.85535 8.00003 7.99988 8.00003L8.49988 8L13.4999 8.00002C13.6325 8.00002 13.7597 8.0527 13.8534 8.14646C13.9472 8.24023 13.9999 8.36741 13.9999 8.50002Z"
    fill="#1F1F1F"
  />
</svg>